<svg width="24" height="24" viewBox="0 0 24 24" fill="none" xmlns="http://www.w3.org/2000/svg">
<circle cx="12" cy="12" r="12" fill="#FEA611"/>
<path d="M7.86612 6.02557C7.86612 5.2777 8.02 4.63601 8.32777 4.1005C8.63554 3.56806 9.06333 3.15874 9.61115 2.87251C10.1621 2.58629 10.7991 2.44318 11.5224 2.44318C12.2487 2.44318 12.8858 2.58629 13.4336 2.87251C13.9845 3.16181 14.4138 3.57268 14.7216 4.10511C15.0294 4.64063 15.1832 5.27924 15.1832 6.02095C15.1832 6.67649 15.0647 7.2474 14.8278 7.73367C14.5908 8.22301 14.2553 8.60464 13.8214 8.87855C13.3905 9.15554 12.8842 9.30173 12.3026 9.31712V7.20739C12.6657 7.1643 12.9504 7.04119 13.1566 6.83807C13.3628 6.63802 13.4659 6.37642 13.4659 6.05327C13.4659 5.79167 13.392 5.56238 13.2443 5.36541C13.0997 5.16844 12.8842 5.01456 12.598 4.90376C12.3149 4.79605 11.964 4.74219 11.5455 4.74219C11.1269 4.74219 10.773 4.79605 10.4837 4.90376C10.1974 5.01456 9.98047 5.16844 9.83274 5.36541C9.68809 5.56238 9.61577 5.79167 9.61577 6.05327C9.61577 6.26255 9.66039 6.44721 9.74965 6.60724C9.8389 6.77036 9.9697 6.90424 10.142 7.00888C10.3175 7.11352 10.5298 7.17969 10.7791 7.20739V9.31712C10.1944 9.29557 9.68348 9.14938 9.24645 8.87855C8.80942 8.6108 8.46934 8.23378 8.22621 7.74751C7.98615 7.26432 7.86612 6.69034 7.86612 6.02557ZM11.6747 10.1354H12.718C12.718 10.6709 12.8242 11.0418 13.0366 11.248C13.2489 11.4572 13.5859 11.5619 14.0476 11.5619H14.9201C15.5387 11.5619 16.025 11.6527 16.3789 11.8343C16.7328 12.0189 16.9929 12.2697 17.1591 12.5867C17.3253 12.9068 17.4299 13.2761 17.473 13.6947C17.5192 14.1133 17.5423 14.558 17.5423 15.0289L15.8849 15.0289C15.8849 14.6595 15.8403 14.3825 15.7511 14.1979C15.6618 14.0163 15.5264 13.8947 15.3448 13.8332C15.1632 13.7716 14.9339 13.7409 14.657 13.7409H13.4751C13.2412 13.7409 13.0166 13.6932 12.8011 13.5977C12.5857 13.5023 12.3933 13.3269 12.2241 13.0715C12.0548 12.816 11.9209 12.4513 11.8224 11.9774C11.724 11.5065 11.6747 10.8925 11.6747 10.1354ZM5.90412 15.0289C5.90412 14.558 5.9272 14.1133 5.97337 13.6947C6.01645 13.2761 6.12109 12.9068 6.28729 12.5867C6.45348 12.2697 6.71354 12.0189 7.06747 11.8343C7.4214 11.6527 7.90767 11.5619 8.52628 11.5619H9.39418C9.8589 11.5619 10.1959 11.4572 10.4052 11.248C10.6175 11.0418 10.7237 10.6709 10.7237 10.1354H11.7717C11.7717 10.8925 11.7209 11.5065 11.6193 11.9774C11.5208 12.4513 11.387 12.816 11.2177 13.0715C11.0515 13.3269 10.8607 13.5023 10.6452 13.5977C10.4298 13.6932 10.2051 13.7409 9.97124 13.7409H8.78942C8.51243 13.7409 8.28314 13.7716 8.10156 13.8332C7.91998 13.8947 7.78456 14.0163 7.69531 14.1979C7.60606 14.3825 7.56143 14.6595 7.56143 15.0289H5.90412ZM10.7237 10.1354H12.718V11.9774H10.7237V10.1354ZM11.7717 20.4221H10.7237C10.7237 19.8896 10.6175 19.5188 10.4052 19.3095C10.1959 19.1002 9.8589 18.9956 9.39418 18.9956H8.52628C7.90767 18.9956 7.4214 18.9032 7.06747 18.7186C6.71354 18.537 6.45348 18.2862 6.28729 17.9661C6.12109 17.6491 6.01645 17.2813 5.97337 16.8627C5.9272 16.4473 5.90412 16.0025 5.90412 15.5286H7.56143C7.56143 15.8979 7.60606 16.1734 7.69531 16.3549C7.78456 16.5396 7.91998 16.6627 8.10156 16.7243C8.28314 16.7858 8.51243 16.8166 8.78942 16.8166H9.97124C10.2051 16.8166 10.4298 16.8643 10.6452 16.9597C10.8607 17.0551 11.0515 17.2305 11.2177 17.486C11.387 17.7414 11.5208 18.1046 11.6193 18.5755C11.7209 19.0494 11.7717 19.665 11.7717 20.4221ZM17.5423 15.5286C17.5423 16.0025 17.5192 16.4473 17.473 16.8627C17.4299 17.2813 17.3253 17.6491 17.1591 17.9661C16.9929 18.2862 16.7328 18.537 16.3789 18.7186C16.025 18.9032 15.5387 18.9956 14.9201 18.9956H14.0476C13.5859 18.9956 13.2489 19.1002 13.0366 19.3095C12.8242 19.5188 12.718 19.8896 12.718 20.4221H11.6747C11.6747 19.665 11.724 19.0494 11.8224 18.5755C11.9209 18.1046 12.0548 17.7414 12.2241 17.486C12.3933 17.2305 12.5857 17.0551 12.8011 16.9597C13.0166 16.8643 13.2412 16.8166 13.4751 16.8166H14.657C14.9339 16.8166 15.1632 16.7858 15.3448 16.7243C15.5264 16.6627 15.6618 16.5396 15.7511 16.3549C15.8403 16.1734 15.8849 15.8979 15.8849 15.5286L17.5423 15.5286ZM12.718 20.4221H10.7237L10.7237 18.5801H12.718L12.718 20.4221Z" fill="white"/>
</svg>
