<svg width="29" height="30" viewBox="0 0 29 30" fill="none" xmlns="http://www.w3.org/2000/svg">
<path opacity="0.4" d="M23.0039 12.957V21.3404C22.9687 24.6821 22.0541 25.5263 18.5718 25.5263H7.50331C3.96232 25.5263 3.07117 24.6469 3.07117 21.1528V12.957C3.07117 9.79117 3.80986 8.77108 6.58872 8.60693C6.87012 8.59521 7.17501 8.58348 7.50331 8.58348H18.5718C22.1128 8.58348 23.0039 9.46287 23.0039 12.957Z" fill="#80CC28"/>
<path d="M26.5215 8.79453V16.9904C26.5215 20.1562 25.7828 21.1763 23.0039 21.3404V12.957C23.0039 9.46286 22.1128 8.58348 18.5718 8.58348H7.50331C7.17501 8.58348 6.87012 8.5952 6.58871 8.60693C6.62389 5.26526 7.53849 4.42105 11.0209 4.42105H22.0893C25.6303 4.42105 26.5215 5.30044 26.5215 8.79453Z" fill="#80CC28"/>
<path d="M8.88686 22.6654H6.8701C6.38937 22.6654 5.99072 22.2667 5.99072 21.786C5.99072 21.3053 6.38937 20.9066 6.8701 20.9066H8.88686C9.36759 20.9066 9.76625 21.3053 9.76625 21.786C9.76625 22.2667 9.37932 22.6654 8.88686 22.6654Z" fill="#80CC28"/>
<path d="M15.4412 22.6654H11.4077C10.927 22.6654 10.5283 22.2667 10.5283 21.786C10.5283 21.3053 10.927 20.9066 11.4077 20.9066H15.4412C15.9219 20.9066 16.3206 21.3053 16.3206 21.786C16.3206 22.2667 15.9336 22.6654 15.4412 22.6654Z" fill="#80CC28"/>
<path d="M23.0039 14.8095H3.07117V16.5683H23.0039V14.8095Z" fill="#80CC28"/>
</svg>
