<svg width="29" height="29" viewBox="0 0 29 29" fill="none" xmlns="http://www.w3.org/2000/svg">
<rect x="0.144867" y="0.0136719" width="28.1403" height="28.1403" rx="5.62807" fill="white"/>
<g clip-path="url(#clip0_1_72)">
<path d="M14.2148 23.2293C19.2658 23.2293 23.3604 19.1347 23.3604 14.0837C23.3604 9.03274 19.2658 4.93811 14.2148 4.93811C9.16381 4.93811 5.06918 9.03274 5.06918 14.0837C5.06918 19.1347 9.16381 23.2293 14.2148 23.2293Z" fill="#FB3F6C"/>
<path d="M16.5148 14.4418H14.8829V20.4204H12.4104V14.4418H11.2344V12.3407H12.4104V10.981C12.4104 10.0087 12.8722 8.48621 14.9049 8.48621L16.7363 8.49387V10.5334H15.4075C15.1895 10.5334 14.883 10.6423 14.883 11.1061V12.3427H16.7308L16.5148 14.4418Z" fill="white"/>
</g>
<defs>
<clipPath id="clip0_1_72">
<rect width="18.2912" height="18.2912" fill="white" transform="translate(5.06918 4.93811)"/>
</clipPath>
</defs>
</svg>
