<svg width="30" height="29" viewBox="0 0 30 29" fill="none" xmlns="http://www.w3.org/2000/svg">
<rect x="0.937592" y="0.0136719" width="28.1403" height="28.1403" rx="5.62807" fill="white"/>
<g clip-path="url(#clip0_1_77)">
<path d="M7.00647 6.18299C5.56909 7.67601 5.86327 9.26201 5.86327 14.0802C5.86327 18.0814 5.16516 22.0925 8.81883 23.0368C9.95974 23.3302 20.0687 23.3302 21.2081 23.0353C22.7293 22.6428 23.967 21.4089 24.1362 19.2574C24.1598 18.9571 24.1598 9.20866 24.1354 8.90229C23.9556 6.61055 22.5449 5.28977 20.686 5.02226C20.26 4.96053 20.1746 4.94224 17.9888 4.93843C10.2356 4.94224 8.53608 4.59699 7.00647 6.18299Z" fill="#FB3F6C"/>
<path d="M15.0059 7.33037C12.2386 7.33037 9.61075 7.0842 8.60702 9.66021C8.19241 10.7242 8.25262 12.1059 8.25262 14.0844C8.25262 15.8205 8.19699 17.4523 8.60702 18.5078C9.60846 21.0854 12.2576 20.8384 15.0044 20.8384C17.6543 20.8384 20.3866 21.1143 21.4025 18.5078C21.8179 17.4332 21.7569 16.0721 21.7569 14.0844C21.7569 11.4459 21.9024 9.74253 20.6228 8.46366C19.3272 7.16804 17.575 7.33037 15.0028 7.33037H15.0059ZM14.4008 8.5475C20.1732 8.53835 20.9079 7.89664 20.5024 16.8113C20.3584 19.9643 17.9576 19.6183 15.0067 19.6183C9.62599 19.6183 9.47128 19.4643 9.47128 14.0814C9.47128 8.63591 9.89807 8.55055 14.4008 8.54597V8.5475ZM18.6108 9.6686C18.1634 9.6686 17.8006 10.0314 17.8006 10.4787C17.8006 10.9261 18.1634 11.2889 18.6108 11.2889C19.0582 11.2889 19.4209 10.9261 19.4209 10.4787C19.4209 10.0314 19.0582 9.6686 18.6108 9.6686ZM15.0059 10.6159C13.0907 10.6159 11.5382 12.1692 11.5382 14.0844C11.5382 15.9996 13.0907 17.5521 15.0059 17.5521C16.9211 17.5521 18.4728 15.9996 18.4728 14.0844C18.4728 12.1692 16.9211 10.6159 15.0059 10.6159ZM15.0059 11.8331C17.982 11.8331 17.9858 16.3357 15.0059 16.3357C12.0305 16.3357 12.0259 11.8331 15.0059 11.8331Z" fill="white"/>
</g>
<defs>
<clipPath id="clip0_1_77">
<rect width="18.2912" height="18.2912" fill="white" transform="translate(5.86185 4.93811)"/>
</clipPath>
</defs>
</svg>
