<svg width="29" height="30" viewBox="0 0 29 30" fill="none" xmlns="http://www.w3.org/2000/svg">
<path opacity="0.4" d="M25.5336 14.2584V21.2818C25.5336 24.5179 22.9072 27.1444 19.671 27.1444H9.42325C6.18711 27.1444 3.56068 24.5179 3.56068 21.2818V14.3405C4.45179 15.302 5.7181 15.8531 7.08994 15.8531C8.56731 15.8531 9.98605 15.1144 10.8772 13.9301C11.6745 15.1144 13.0346 15.8531 14.5471 15.8531C16.0479 15.8531 17.3846 15.1495 18.1937 13.977C19.0965 15.1378 20.4918 15.8531 21.9457 15.8531C23.3644 15.8531 24.6542 15.2785 25.5336 14.2584Z" fill="#593FFB"/>
<path d="M18.0529 2.36914H11.0179L10.1502 10.9988C10.0799 11.7962 10.1971 12.5466 10.4902 13.2266C11.1703 14.8212 12.7649 15.8531 14.5471 15.8531C16.3528 15.8531 17.9122 14.8447 18.6158 13.2383C18.8268 12.7342 18.9558 12.1479 18.9675 11.5499V11.3271L18.0529 2.36914Z" fill="#593FFB"/>
<path opacity="0.6" d="M26.6944 10.6002L26.3544 7.35232C25.8619 3.81133 24.2556 2.36914 20.8201 2.36914H16.3176L17.1853 11.163C17.197 11.2802 17.2087 11.4092 17.2087 11.632C17.2791 12.2417 17.4667 12.8045 17.7481 13.3087C18.5923 14.8564 20.2338 15.8531 21.9457 15.8531C23.5051 15.8531 24.9122 15.1613 25.7915 13.9419C26.4951 13.0038 26.8116 11.8196 26.6944 10.6002Z" fill="#593FFB"/>
<path opacity="0.6" d="M8.20384 2.36914C4.75664 2.36914 3.16203 3.81133 2.65784 7.3875L2.34127 10.6119C2.22401 11.8665 2.56404 13.0859 3.30273 14.0357C4.19384 15.1964 5.56568 15.8531 7.08995 15.8531C8.80182 15.8531 10.4433 14.8564 11.2758 13.3321C11.5807 12.8045 11.78 12.1948 11.8386 11.5617L12.7532 2.38087H8.20384V2.36914Z" fill="#593FFB"/>
<path d="M13.785 20.4376C12.2959 20.59 11.1703 21.8563 11.1703 23.3572V27.1444H17.9122V23.7675C17.924 21.317 16.4818 20.1562 13.785 20.4376Z" fill="#593FFB"/>
</svg>
