<svg width="29" height="29" viewBox="0 0 29 29" fill="none" xmlns="http://www.w3.org/2000/svg">
<rect x="0.541107" y="0.0136719" width="28.1403" height="28.1403" rx="5.62807" fill="white"/>
<g clip-path="url(#clip0_1_67)">
<path d="M22.346 21.8218V21.8212H22.3499V16.1449C22.3499 13.3681 21.7521 11.229 18.5058 11.229C16.9452 11.229 15.8979 12.0854 15.4703 12.8973H15.4252V11.4882H12.3471V21.8212H15.5522V16.7047C15.5522 15.3575 15.8076 14.0549 17.4759 14.0549C19.1197 14.0549 19.1442 15.5923 19.1442 16.7911V21.8218H22.346Z" fill="#FB3F6C"/>
<path d="M7.12833 11.4891H10.3373V21.8221H7.12833V11.4891Z" fill="#FB3F6C"/>
<path d="M8.73123 6.34521C7.70522 6.34521 6.87268 7.17776 6.87268 8.20377C6.87268 9.22978 7.70522 10.0797 8.73123 10.0797C9.75724 10.0797 10.5898 9.22978 10.5898 8.20377C10.5891 7.17776 9.7566 6.34521 8.73123 6.34521V6.34521Z" fill="#FB3F6C"/>
</g>
<defs>
<clipPath id="clip0_1_67">
<rect width="15.4772" height="15.4772" fill="white" transform="translate(6.87268 6.34521)"/>
</clipPath>
</defs>
</svg>
