<svg width="80" height="89" viewBox="0 0 80 89" fill="none" xmlns="http://www.w3.org/2000/svg">
<path opacity="0.2" d="M38.1644 49.6207C40.5739 48.424 42.8251 46.9048 44.8375 45.1174C46.8153 43.3149 48.5557 41.2955 50.0088 39.1174C51.4635 37.0068 52.6666 34.7741 53.5919 32.4676C54.5277 30.1649 55.0469 27.7828 55.1258 25.4303C55.1603 24.2448 55.0118 23.0861 54.6849 21.9902C54.3617 20.8451 53.7622 19.8193 52.9289 18.9854C51.9862 18.0661 50.6948 17.5198 49.2603 17.4336C47.7847 17.3821 46.2619 17.733 44.8684 18.4459C44.2125 18.7656 43.5777 19.1321 42.9705 19.5419C42.4006 19.9492 41.8495 20.3815 41.3195 20.8372C40.8087 21.2744 40.324 21.7387 39.8685 22.2272L39.1415 22.9651L38.5111 23.7003C36.9381 25.5941 35.5433 27.6022 34.3463 29.6963C33.1455 31.737 32.235 33.8871 31.6418 36.0825C31.0811 38.165 30.8347 40.2695 30.9103 42.3303L30.9269 43.0756L31.0169 43.8023C31.072 44.2796 31.1285 44.777 31.1955 45.2357C31.3529 46.1603 31.5627 47.0693 31.8241 47.9592C31.9785 48.4738 32.163 48.9784 32.3475 49.483C31.8047 49.6434 31.3024 49.755 30.7198 49.9111C28.5629 50.4075 26.3873 50.6345 24.2514 50.586C22.2112 50.5145 20.2405 50.1447 18.4075 49.4894C14.9632 48.1296 12.009 45.9966 9.76678 43.2507C7.66798 40.676 6.00673 37.7815 4.83094 34.6509C3.74323 31.7888 2.9178 28.8133 2.36273 25.7535C1.84453 23.0804 1.52295 20.3509 1.40012 17.5832C1.19737 13.5295 1.71089 9.3735 2.92034 5.27984C3.84659 2.34604 4.73675 0.729461 4.5521 0.729413C4.24639 1.06809 3.99613 1.44498 3.81178 1.84436C3.20466 2.94031 2.6817 4.06676 2.24753 5.21373C0.754899 9.36198 0.0248268 13.6216 0.0914497 17.7936C0.105023 20.6441 0.329887 23.4612 0.764421 26.2246C1.23291 29.3947 1.98398 32.4845 3.01011 35.4631C4.14712 38.7813 5.80532 41.8596 7.93528 44.6062C10.28 47.6417 13.422 50.0169 17.1171 51.5474C19.1495 52.3243 21.3446 52.7788 23.6247 52.8949C26.0108 52.9906 28.4482 52.7694 30.868 52.2375C31.7026 52.065 32.5331 51.8489 33.3553 51.5903C34.2489 53.4366 35.3305 55.1778 36.5871 56.7927C39.9735 61.0568 44.0886 64.7276 48.7996 67.6863C52.1937 69.8553 55.8098 71.7338 59.6128 73.3035C63.8074 75.0757 68.2609 76.383 72.8963 77.2028L74.3608 77.4009L72.9464 77.9252C71.4362 78.5254 70.0001 79.18 68.6374 79.8161C66.2387 80.971 63.9108 82.2862 61.6742 83.7502C57.8476 86.2576 55.8201 88.2092 56.0131 88.4558C56.206 88.7024 58.5922 87.294 62.4473 85.2611C64.3954 84.2569 66.7102 83.0864 69.3354 81.9562C70.654 81.3818 72.039 80.8145 73.4786 80.2731C74.2075 80.0067 74.9447 79.7345 75.6918 79.4767C76.0695 79.345 76.4102 79.249 76.9572 79.0227C77.678 78.743 78.3161 78.2595 78.774 77.6457C79.0117 77.3129 79.1808 76.947 79.2709 76.5709C79.3368 76.2757 79.362 75.9794 79.346 75.6894C79.3105 75.2636 79.2257 74.8494 79.0932 74.4538C78.9039 73.8159 78.6978 73.1895 78.5098 72.5717C78.1122 71.3403 77.7139 70.162 77.3282 69.0382C76.5232 66.8134 75.7209 64.8811 74.9814 63.2211C73.5277 60.01 72.3372 58.122 71.9671 58.3011C71.5971 58.4802 72.0845 60.6905 73.041 64.1465L74.7827 70.177C75.1134 71.3104 75.455 72.4959 75.8076 73.7334C75.9823 74.3498 76.1667 74.9805 76.3512 75.6112C76.3572 75.6279 76.3672 75.6425 76.3805 75.6542C75.849 75.4706 75.0853 75.2353 73.9748 74.9427C69.6702 73.7624 65.495 72.3019 61.4762 70.5706C57.8688 68.9681 54.4278 67.1029 51.1798 64.9894C46.7309 62.1415 42.8357 58.6396 39.6127 54.5904C38.5683 53.2352 37.6507 51.7886 36.8682 50.2639C37.3117 50.0662 37.7552 49.8685 38.1889 49.6565L38.1644 49.6207ZM35.2978 46.4494C35.0537 45.6658 34.8557 44.8643 34.7048 44.0484C34.6371 43.6427 34.5946 43.2199 34.5387 42.7956L34.4641 42.1635L34.4496 41.5113C34.363 39.744 34.5635 37.935 35.0444 36.145C35.543 34.2488 36.3169 32.39 37.343 30.6244C38.3971 28.7355 39.6335 26.9234 41.0341 25.2145L41.5701 24.5754L42.1354 23.9793C42.506 23.5839 42.8965 23.2051 43.3052 22.8444C43.7012 22.4689 44.1006 22.2067 44.5547 21.8442C44.9702 21.559 45.4054 21.3041 45.8558 21.082C46.6017 20.6355 47.4483 20.4152 48.2637 20.4553C49.0791 20.4954 49.8175 20.7938 50.3641 21.3039C51.4987 22.5952 52.0592 24.2893 51.9496 26.096C51.9014 28.1047 51.4804 30.1416 50.7055 32.1157C49.8941 34.1954 48.8325 36.2115 47.5437 38.1205C46.2922 40.0567 44.7818 41.8555 43.0567 43.4643C41.3054 45.0382 39.3427 46.3782 37.2391 47.436C36.7851 47.6724 36.3213 47.8944 35.861 48.1036C35.6472 47.556 35.4466 47.0099 35.2517 46.4178" fill="#5B1727"/>
</svg>
